<svg xmlns="http://www.w3.org/2000/svg" width="785.1571044921875" height="807.3209838867188" viewBox="-482.83770751953125 -431.7957458496094 785.1571044921875 807.3209838867188"><title>Neo4j Graph Visualization</title><desc>Created using Neo4j (http://www.neo4j.com/)</desc><g class="layer relationships"><g class="relationship" transform="translate(-7.385633034749756 173.21490660171813) rotate(366.3580544900406)"><path class="b-outline" fill="#A5ABB6" stroke="none" d="M 25 0.5 L 38.133649670269705 0.5 L 38.133649670269705 -0.5 L 25 -0.5 Z M 84.9930246702697 0.5 L 98.12667434053941 0.5 L 98.12667434053941 3.5 L 105.12667434053941 0 L 98.12667434053941 -3.5 L 98.12667434053941 -0.5 L 84.9930246702697 -0.5 Z"/><text text-anchor="middle" pointer-events="none" font-size="8px" fill="#000000" x="61.563337170269705" y="3" font-family="Helvetica Neue, Helvetica, Arial, sans-serif">CONTAINS</text></g><g class="relationship" transform="translate(121.94066568275636 187.62531377706102) rotate(347.36837675241406)"><path class="b-outline" fill="#A5ABB6" stroke="none" d="M 25 0.5 L 54.9476295785563 0.5 L 54.9476295785563 -0.5 L 25 -0.5 Z M 93.1859108285563 0.5 L 123.1335404071126 0.5 L 123.1335404071126 3.5 L 130.1335404071126 0 L 123.1335404071126 -3.5 L 123.1335404071126 -0.5 L 93.1859108285563 -0.5 Z"/><text text-anchor="middle" pointer-events="none" font-size="8px" fill="#000000" x="74.0667702035563" y="3" font-family="Helvetica Neue, Helvetica, Arial, sans-serif">DEFINES</text></g><g class="relationship" transform="translate(121.94066568275636 187.62531377706102) rotate(425.7133684012674)"><path class="b-outline" fill="#A5ABB6" stroke="none" d="M 25 0.5 L 53.3295444409499 0.5 L 53.3295444409499 -0.5 L 25 -0.5 Z M 91.5678256909499 0.5 L 119.8973701318998 0.5 L 119.8973701318998 3.5 L 126.8973701318998 0 L 119.8973701318998 -3.5 L 119.8973701318998 -0.5 L 91.5678256909499 -0.5 Z"/><text text-anchor="middle" pointer-events="none" font-size="8px" fill="#000000" x="72.4486850659499" y="3" font-family="Helvetica Neue, Helvetica, Arial, sans-serif">DEFINES</text></g><g class="relationship" transform="translate(121.94066568275636 187.62531377706102) rotate(385.00803438597643)"><path class="b-outline" fill="#A5ABB6" stroke="none" d="M 25 0.5 L 54.27258699867765 0.5 L 54.27258699867765 -0.5 L 25 -0.5 Z M 92.51086824867765 0.5 L 121.7834552473553 0.5 L 121.7834552473553 3.5 L 128.7834552473553 0 L 121.7834552473553 -3.5 L 121.7834552473553 -0.5 L 92.51086824867765 -0.5 Z"/><text text-anchor="middle" pointer-events="none" font-size="8px" fill="#000000" x="73.39172762367765" y="3" font-family="Helvetica Neue, Helvetica, Arial, sans-serif">DEFINES</text></g><g class="relationship" transform="translate(-1.7741190842502021 20.435774967172037) rotate(349.89537976790075)"><path class="b-outline" fill="#A5ABB6" stroke="none" d="M 25 0.5 L 52.878582959264165 0.5 L 52.878582959264165 -0.5 L 25 -0.5 Z M 99.73795795926416 0.5 L 127.61654091852833 0.5 L 127.61654091852833 3.5 L 134.61654091852833 0 L 127.61654091852833 -3.5 L 127.61654091852833 -0.5 L 99.73795795926416 -0.5 Z"/><text text-anchor="middle" pointer-events="none" font-size="8px" fill="#000000" x="76.30827045926416" y="3" font-family="Helvetica Neue, Helvetica, Arial, sans-serif">CONTAINS</text></g><g class="relationship" transform="translate(-1.7741190842502021 20.435774967172037) rotate(387.36028375769706)"><path class="b-outline" fill="#A5ABB6" stroke="none" d="M 25 0.5 L 51.293735691228434 0.5 L 51.293735691228434 -0.5 L 25 -0.5 Z M 89.53201694122843 0.5 L 115.82575263245687 0.5 L 115.82575263245687 3.5 L 122.82575263245687 0 L 115.82575263245687 -3.5 L 115.82575263245687 -0.5 L 89.53201694122843 -0.5 Z"/><text text-anchor="middle" pointer-events="none" font-size="8px" fill="#000000" x="70.41287631622843" y="3" font-family="Helvetica Neue, Helvetica, Arial, sans-serif">DEFINES</text></g><g class="relationship" transform="translate(-1.7741190842502021 20.435774967172037) rotate(313.4044105298882)"><path class="b-outline" fill="#A5ABB6" stroke="none" d="M 25 0.5 L 56.01131825869108 0.5 L 56.01131825869108 -0.5 L 25 -0.5 Z M 94.24959950869108 0.5 L 125.26091776738215 0.5 L 125.26091776738215 3.5 L 132.26091776738215 0 L 125.26091776738215 -3.5 L 125.26091776738215 -0.5 L 94.24959950869108 -0.5 Z"/><text text-anchor="middle" pointer-events="none" font-size="8px" fill="#000000" x="75.13045888369108" y="3" font-family="Helvetica Neue, Helvetica, Arial, sans-serif">DEFINES</text></g><g class="relationship" transform="translate(-1.7741190842502021 20.435774967172037) rotate(275.20345991429616)"><path class="b-outline" fill="#A5ABB6" stroke="none" d="M 25 0.5 L 50.03486886511956 0.5 L 50.03486886511956 -0.5 L 25 -0.5 Z M 88.27315011511956 0.5 L 113.30801898023913 0.5 L 113.30801898023913 3.5 L 120.30801898023913 0 L 113.30801898023913 -3.5 L 113.30801898023913 -0.5 L 88.27315011511956 -0.5 Z"/><text text-anchor="middle" pointer-events="none" font-size="8px" fill="#000000" x="69.15400949011956" y="3" font-family="Helvetica Neue, Helvetica, Arial, sans-serif">DEFINES</text></g><g class="relationship" transform="translate(-1.7741190842502021 20.435774967172037) rotate(413.49977104695023)"><path class="b-outline" fill="#A5ABB6" stroke="none" d="M 25 0.5 L 55.400618542435765 0.5 L 55.400618542435765 -0.5 L 25 -0.5 Z M 145.58421229243578 0.5 L 175.98483083487153 0.5 L 175.98483083487153 3.5 L 182.98483083487153 0 L 175.98483083487153 -3.5 L 175.98483083487153 -0.5 L 145.58421229243578 -0.5 Z"/><text text-anchor="middle" pointer-events="none" font-size="8px" fill="#000000" x="100.49241541743577" y="3" font-family="Helvetica Neue, Helvetica, Arial, sans-serif">IMPORTS_DEFINITION</text></g><g class="relationship" transform="translate(-1.7741190842502021 20.435774967172037) rotate(243.4455068758213)"><path class="b-outline" fill="#A5ABB6" stroke="none" d="M 25 0.5 L 83.66918018254984 0.5 L 83.66918018254984 -0.5 L 25 -0.5 Z M 173.85277393254984 0.5 L 232.52195411509967 0.5 L 232.52195411509967 3.5 L 239.52195411509967 0 L 232.52195411509967 -3.5 L 232.52195411509967 -0.5 L 173.85277393254984 -0.5 Z"/><text text-anchor="middle" pointer-events="none" font-size="8px" fill="#000000" x="128.76097705754984" y="3" transform="rotate(180 128.76097705754984 0)" font-family="Helvetica Neue, Helvetica, Arial, sans-serif">IMPORTS_DEFINITION</text></g><g class="relationship" transform="translate(-1.7741190842502021 20.435774967172037) rotate(491.9941047732774)"><path class="b-outline" fill="#A5ABB6" stroke="none" d="M 25 0.5 L 67.14763919010598 0.5 L 67.14763919010598 -0.5 L 25 -0.5 Z M 157.33123294010596 0.5 L 199.47887213021195 0.5 L 199.47887213021195 3.5 L 206.47887213021195 0 L 199.47887213021195 -3.5 L 199.47887213021195 -0.5 L 157.33123294010596 -0.5 Z"/><text text-anchor="middle" pointer-events="none" font-size="8px" fill="#000000" x="112.23943606510598" y="3" transform="rotate(180 112.23943606510598 0)" font-family="Helvetica Neue, Helvetica, Arial, sans-serif">IMPORTS_DEFINITION</text></g><g class="relationship" transform="translate(-1.7741190842502021 20.435774967172037) rotate(506.76435646595655)"><path class="b-outline" fill="#A5ABB6" stroke="none" d="M 25 0.5 L 34.5230026770231 0.5 L 34.5230026770231 -0.5 L 25 -0.5 Z M 124.7065964270231 0.5 L 134.2295991040462 0.5 L 134.2295991040462 3.5 L 141.2295991040462 0 L 134.2295991040462 -3.5 L 134.2295991040462 -0.5 L 124.7065964270231 -0.5 Z"/><text text-anchor="middle" pointer-events="none" font-size="8px" fill="#000000" x="79.6147995520231" y="3" transform="rotate(180 79.6147995520231 0)" font-family="Helvetica Neue, Helvetica, Arial, sans-serif">IMPORTS_DEFINITION</text></g><g class="relationship" transform="translate(-1.7741190842502021 20.435774967172037) rotate(452.1035045675569)"><path class="b-outline" fill="#A5ABB6" stroke="none" d="M 25 0.5 L 38.757481843921724 0.5 L 38.757481843921724 -0.5 L 25 -0.5 Z M 107.12466934392172 0.5 L 120.88215118784345 0.5 L 120.88215118784345 3.5 L 127.88215118784345 0 L 120.88215118784345 -3.5 L 120.88215118784345 -0.5 L 107.12466934392172 -0.5 Z"/><text text-anchor="middle" pointer-events="none" font-size="8px" fill="#000000" x="72.94107559392172" y="3" transform="rotate(180 72.94107559392172 0)" font-family="Helvetica Neue, Helvetica, Arial, sans-serif">IMPORTS_FROM</text></g><g class="relationship" transform="translate(-1.7741190842502021 20.435774967172037) rotate(206.15209602827207)"><path class="b-outline" fill="#A5ABB6" stroke="none" d="M 25 0.5 L 86.09217910066704 0.5 L 86.09217910066704 -0.5 L 25 -0.5 Z M 154.45936660066704 0.5 L 215.55154570133408 0.5 L 215.55154570133408 3.5 L 222.55154570133408 0 L 215.55154570133408 -3.5 L 215.55154570133408 -0.5 L 154.45936660066704 -0.5 Z"/><text text-anchor="middle" pointer-events="none" font-size="8px" fill="#000000" x="120.27577285066704" y="3" transform="rotate(180 120.27577285066704 0)" font-family="Helvetica Neue, Helvetica, Arial, sans-serif">IMPORTS_FROM</text></g><g class="relationship" transform="translate(-1.7741190842502021 20.435774967172037) rotate(534.6495687546949)"><path class="b-outline" fill="#A5ABB6" stroke="none" d="M 25 0.5 L 82.7528802777614 0.5 L 82.7528802777614 -0.5 L 25 -0.5 Z M 151.1200677777614 0.5 L 208.8729480555228 0.5 L 208.8729480555228 3.5 L 215.8729480555228 0 L 208.8729480555228 -3.5 L 208.8729480555228 -0.5 L 151.1200677777614 -0.5 Z"/><text text-anchor="middle" pointer-events="none" font-size="8px" fill="#000000" x="116.9364740277614" y="3" transform="rotate(180 116.9364740277614 0)" font-family="Helvetica Neue, Helvetica, Arial, sans-serif">IMPORTS_FROM</text></g><g class="relationship" transform="translate(-223.98311771325507 -88.67393453392879) rotate(241.74042568396789)"><path class="b-outline" fill="#A5ABB6" stroke="none" d="M 25 0.5 L 73.56115662734477 0.5 L 73.56115662734477 -0.5 L 25 -0.5 Z M 120.42053162734477 0.5 L 168.98168825468954 0.5 L 168.98168825468954 3.5 L 175.98168825468954 0 L 168.98168825468954 -3.5 L 168.98168825468954 -0.5 L 120.42053162734477 -0.5 Z"/><text text-anchor="middle" pointer-events="none" font-size="8px" fill="#000000" x="96.99084412734477" y="3" transform="rotate(180 96.99084412734477 0)" font-family="Helvetica Neue, Helvetica, Arial, sans-serif">CONTAINS</text></g><g class="relationship" transform="translate(-223.98311771325507 -88.67393453392879) rotate(309.1897523630779)"><path class="b-outline" fill="#A5ABB6" stroke="none" d="M 25 0.5 L 55.32724890772269 0.5 L 55.32724890772269 -0.5 L 25 -0.5 Z M 102.18662390772269 0.5 L 132.51387281544538 0.5 L 132.51387281544538 3.5 L 139.51387281544538 0 L 132.51387281544538 -3.5 L 132.51387281544538 -0.5 L 102.18662390772269 -0.5 Z"/><text text-anchor="middle" pointer-events="none" font-size="8px" fill="#000000" x="78.75693640772269" y="3" font-family="Helvetica Neue, Helvetica, Arial, sans-serif">CONTAINS</text></g><g class="relationship" transform="translate(-223.98311771325507 -88.67393453392879) rotate(521.0796062537559)"><path class="b-outline" fill="#A5ABB6" stroke="none" d="M 25 0.5 L 55.23506209833114 0.5 L 55.23506209833114 -0.5 L 25 -0.5 Z M 145.41865584833113 0.5 L 175.65371794666228 0.5 L 175.65371794666228 3.5 L 182.65371794666228 0 L 175.65371794666228 -3.5 L 175.65371794666228 -0.5 L 145.41865584833113 -0.5 Z"/><text text-anchor="middle" pointer-events="none" font-size="8px" fill="#000000" x="100.32685897333114" y="3" transform="rotate(180 100.32685897333114 0)" font-family="Helvetica Neue, Helvetica, Arial, sans-serif">IMPORTS_DEFINITION</text></g><g class="relationship" transform="translate(-223.98311771325507 -88.67393453392879) rotate(457.6253408938354)"><path class="b-outline" fill="#A5ABB6" stroke="none" d="M 25 0.5 L 28.68853055618648 0.5 L 28.68853055618648 -0.5 L 25 -0.5 Z M 97.05571805618648 0.5 L 100.74424861237296 0.5 L 100.74424861237296 3.5 L 107.74424861237296 0 L 100.74424861237296 -3.5 L 100.74424861237296 -0.5 L 97.05571805618648 -0.5 Z"/><text text-anchor="middle" pointer-events="none" font-size="8px" fill="#000000" x="62.87212430618648" y="3" transform="rotate(180 62.87212430618648 0)" font-family="Helvetica Neue, Helvetica, Arial, sans-serif">IMPORTS_FROM</text></g><g class="relationship" transform="translate(-319.1412866408321 -265.7009434903474) rotate(517.6481873596035)"><path class="b-outline" fill="#A5ABB6" stroke="none" d="M 25 0.5 L 50.20027206468302 0.5 L 50.20027206468302 -0.5 L 25 -0.5 Z M 88.43855331468302 0.5 L 113.63882537936604 0.5 L 113.63882537936604 3.5 L 120.63882537936604 0 L 113.63882537936604 -3.5 L 113.63882537936604 -0.5 L 88.43855331468302 -0.5 Z"/><text text-anchor="middle" pointer-events="none" font-size="8px" fill="#000000" x="69.31941268968302" y="3" transform="rotate(180 69.31941268968302 0)" font-family="Helvetica Neue, Helvetica, Arial, sans-serif">DEFINES</text></g><g class="relationship" transform="translate(-319.1412866408321 -265.7009434903474) rotate(291.6578319516195)"><path class="b-outline" fill="#A5ABB6" stroke="none" d="M 25 0.5 L 51.13496569641305 0.5 L 51.13496569641305 -0.5 L 25 -0.5 Z M 89.37324694641305 0.5 L 115.5082126428261 0.5 L 115.5082126428261 3.5 L 122.5082126428261 0 L 115.5082126428261 -3.5 L 115.5082126428261 -0.5 L 89.37324694641305 -0.5 Z"/><text text-anchor="middle" pointer-events="none" font-size="8px" fill="#000000" x="70.25410632141305" y="3" font-family="Helvetica Neue, Helvetica, Arial, sans-serif">DEFINES</text></g><g class="relationship" transform="translate(-319.1412866408321 -265.7009434903474) rotate(233.94947194598336)"><path class="b-outline" fill="#A5ABB6" stroke="none" d="M 25 0.5 L 49.55370956898618 0.5 L 49.55370956898618 -0.5 L 25 -0.5 Z M 87.79199081898618 0.5 L 112.34570038797236 0.5 L 112.34570038797236 3.5 L 119.34570038797236 0 L 112.34570038797236 -3.5 L 112.34570038797236 -0.5 L 87.79199081898618 -0.5 Z"/><text text-anchor="middle" pointer-events="none" font-size="8px" fill="#000000" x="68.67285019398618" y="3" transform="rotate(180 68.67285019398618 0)" font-family="Helvetica Neue, Helvetica, Arial, sans-serif">DEFINES</text></g><g class="relationship" transform="translate(-120.02833312897441 -216.18164846046872) rotate(347.8038313918903)"><path class="b-outline" fill="#A5ABB6" stroke="none" d="M 25 0.5 L 54.81826314868883 0.5 L 54.81826314868883 -0.5 L 25 -0.5 Z M 93.05654439868883 0.5 L 122.87480754737766 0.5 L 122.87480754737766 3.5 L 129.87480754737766 0 L 122.87480754737766 -3.5 L 122.87480754737766 -0.5 L 93.05654439868883 -0.5 Z"/><text text-anchor="middle" pointer-events="none" font-size="8px" fill="#000000" x="73.93740377368883" y="3" font-family="Helvetica Neue, Helvetica, Arial, sans-serif">DEFINES</text></g><g class="relationship" transform="translate(-120.02833312897441 -216.18164846046872) rotate(272.53615805404115)"><path class="b-outline" fill="#A5ABB6" stroke="none" d="M 25 0.5 L 51.97874375194556 0.5 L 51.97874375194556 -0.5 L 25 -0.5 Z M 90.21702500194556 0.5 L 117.19576875389112 0.5 L 117.19576875389112 3.5 L 124.19576875389112 0 L 117.19576875389112 -3.5 L 117.19576875389112 -0.5 L 90.21702500194556 -0.5 Z"/><text text-anchor="middle" pointer-events="none" font-size="8px" fill="#000000" x="71.09788437694556" y="3" font-family="Helvetica Neue, Helvetica, Arial, sans-serif">DEFINES</text></g><g class="relationship" transform="translate(-120.02833312897441 -216.18164846046872) rotate(310.50746869311445)"><path class="b-outline" fill="#A5ABB6" stroke="none" d="M 25 0.5 L 55.60057753176481 0.5 L 55.60057753176481 -0.5 L 25 -0.5 Z M 93.83885878176481 0.5 L 124.43943631352963 0.5 L 124.43943631352963 3.5 L 131.43943631352963 0 L 124.43943631352963 -3.5 L 124.43943631352963 -0.5 L 93.83885878176481 -0.5 Z"/><text text-anchor="middle" pointer-events="none" font-size="8px" fill="#000000" x="74.71971815676481" y="3" font-family="Helvetica Neue, Helvetica, Arial, sans-serif">DEFINES</text></g><g class="relationship" transform="translate(-241.59758580011376 42.896449875635476) rotate(199.7599234692387)"><path class="b-outline" fill="#A5ABB6" stroke="none" d="M 25 0.5 L 68.07424407896717 0.5 L 68.07424407896717 -0.5 L 25 -0.5 Z M 114.93361907896717 0.5 L 158.00786315793434 0.5 L 158.00786315793434 3.5 L 165.00786315793434 0 L 158.00786315793434 -3.5 L 158.00786315793434 -0.5 L 114.93361907896717 -0.5 Z"/><text text-anchor="middle" pointer-events="none" font-size="8px" fill="#000000" x="91.50393157896717" y="3" transform="rotate(180 91.50393157896717 0)" font-family="Helvetica Neue, Helvetica, Arial, sans-serif">CONTAINS</text></g><g class="relationship" transform="translate(-241.59758580011376 42.896449875635476) rotate(420.40588684814895)"><path class="b-outline" fill="#A5ABB6" stroke="none" d="M 25 0.5 L 59.079357965132516 0.5 L 59.079357965132516 -0.5 L 25 -0.5 Z M 105.93873296513252 0.5 L 140.01809093026503 0.5 L 140.01809093026503 3.5 L 147.01809093026503 0 L 140.01809093026503 -3.5 L 140.01809093026503 -0.5 L 105.93873296513252 -0.5 Z"/><text text-anchor="middle" pointer-events="none" font-size="8px" fill="#000000" x="82.50904546513252" y="3" font-family="Helvetica Neue, Helvetica, Arial, sans-serif">CONTAINS</text></g><g class="relationship" transform="translate(-241.59758580011376 42.896449875635476) rotate(394.2596732276411)"><path class="b-outline" fill="#A5ABB6" stroke="none" d="M 25 0.5 L 34.041737329105956 0.5 L 34.041737329105956 -0.5 L 25 -0.5 Z M 80.90111232910596 0.5 L 89.94284965821191 0.5 L 89.94284965821191 3.5 L 96.94284965821191 0 L 89.94284965821191 -3.5 L 89.94284965821191 -0.5 L 80.90111232910596 -0.5 Z"/><text text-anchor="middle" pointer-events="none" font-size="8px" fill="#000000" x="57.471424829105956" y="3" font-family="Helvetica Neue, Helvetica, Arial, sans-serif">CONTAINS</text></g><g class="relationship" transform="translate(-156.64601676297764 192.47403685116342) rotate(504.489023967278)"><path class="b-outline" fill="#A5ABB6" stroke="none" d="M 25 0.5 L 55.3308105390428 0.5 L 55.3308105390428 -0.5 L 25 -0.5 Z M 93.5690917890428 0.5 L 123.8999023280856 0.5 L 123.8999023280856 3.5 L 130.8999023280856 0 L 123.8999023280856 -3.5 L 123.8999023280856 -0.5 L 93.5690917890428 -0.5 Z"/><text text-anchor="middle" pointer-events="none" font-size="8px" fill="#000000" x="74.4499511640428" y="3" transform="rotate(180 74.4499511640428 0)" font-family="Helvetica Neue, Helvetica, Arial, sans-serif">DEFINES</text></g><g class="relationship" transform="translate(-156.64601676297764 192.47403685116342) rotate(464.3829820271389)"><path class="b-outline" fill="#A5ABB6" stroke="none" d="M 25 0.5 L 56.89879687302914 0.5 L 56.89879687302914 -0.5 L 25 -0.5 Z M 95.13707812302914 0.5 L 127.03587499605828 0.5 L 127.03587499605828 3.5 L 134.03587499605828 0 L 127.03587499605828 -3.5 L 127.03587499605828 -0.5 L 95.13707812302914 -0.5 Z"/><text text-anchor="middle" pointer-events="none" font-size="8px" fill="#000000" x="76.01793749802914" y="3" transform="rotate(180 76.01793749802914 0)" font-family="Helvetica Neue, Helvetica, Arial, sans-serif">DEFINES</text></g><g class="relationship" transform="translate(-156.64601676297764 192.47403685116342) rotate(426.9198442871444)"><path class="b-outline" fill="#A5ABB6" stroke="none" d="M 25 0.5 L 56.54383168374571 0.5 L 56.54383168374571 -0.5 L 25 -0.5 Z M 94.78211293374571 0.5 L 126.32594461749142 0.5 L 126.32594461749142 3.5 L 133.32594461749142 0 L 126.32594461749142 -3.5 L 126.32594461749142 -0.5 L 94.78211293374571 -0.5 Z"/><text text-anchor="middle" pointer-events="none" font-size="8px" fill="#000000" x="75.66297230874571" y="3" font-family="Helvetica Neue, Helvetica, Arial, sans-serif">DEFINES</text></g></g><g class="layer nodes"><g class="node" aria-label="graph-node20" transform="translate(-7.385633034749756,173.21490660171813)" style="touch-action: none; -webkit-tap-highlight-color: rgba(0, 0, 0, 0);"><circle class="b-outline" cx="0" cy="0" r="25" fill="#ECB5C9" stroke="#da7298" stroke-width="2px"/><text class="caption" text-anchor="middle" pointer-events="none" x="0" y="5" font-size="10px" fill="#2A2C34" font-family="Helvetica Neue, Helvetica, Arial, sans-serif"> events.py</text></g><g class="node" aria-label="graph-node21" transform="translate(121.94066568275636,187.62531377706102)" style="touch-action: none; -webkit-tap-highlight-color: rgba(0, 0, 0, 0);"><circle class="b-outline" cx="0" cy="0" r="25" fill="#4C8EDA" stroke="#2870c2" stroke-width="2px"/><text class="caption" text-anchor="middle" pointer-events="none" x="0" y="5" font-size="10px" fill="#FFFFFF" font-family="Helvetica Neue, Helvetica, Arial, sans-serif"> EventBus</text></g><g class="node" aria-label="graph-node22" transform="translate(273.31938700604564,153.70042483441065)" style="touch-action: none; -webkit-tap-highlight-color: rgba(0, 0, 0, 0);"><circle class="b-outline" cx="0" cy="0" r="25" fill="#FFC454" stroke="#d7a013" stroke-width="2px"/><text class="caption" text-anchor="middle" pointer-events="none" x="0" y="5" font-size="10px" fill="#2A2C34" font-family="Helvetica Neue, Helvetica, Arial, sans-serif"> __init__</text></g><g class="node" aria-label="graph-node23" transform="translate(184.41631169781664,326.0796553774177)" style="touch-action: none; -webkit-tap-highlight-color: rgba(0, 0, 0, 0);"><circle class="b-outline" cx="0" cy="0" r="25" fill="#FFC454" stroke="#d7a013" stroke-width="2px"/><text class="caption" text-anchor="middle" pointer-events="none" x="0" y="5" font-size="10px" fill="#2A2C34" font-family="Helvetica Neue, Helvetica, Arial, sans-serif"> subscribe</text></g><g class="node" aria-label="graph-node24" transform="translate(261.3066937631688,252.63655376604308)" style="touch-action: none; -webkit-tap-highlight-color: rgba(0, 0, 0, 0);"><circle class="b-outline" cx="0" cy="0" r="25" fill="#FFC454" stroke="#d7a013" stroke-width="2px"/><text class="caption" text-anchor="middle" pointer-events="none" x="0" y="5" font-size="10px" fill="#2A2C34" font-family="Helvetica Neue, Helvetica, Arial, sans-serif"> publish</text></g><g class="node" aria-label="graph-node25" transform="translate(-1.7741190842502021,20.435774967172037)" style="touch-action: none; -webkit-tap-highlight-color: rgba(0, 0, 0, 0);"><circle class="b-outline" cx="0" cy="0" r="25" fill="#ECB5C9" stroke="#da7298" stroke-width="2px"/><text class="caption" text-anchor="middle" pointer-events="none" x="0" y="5" font-size="10px" fill="#2A2C34" font-family="Helvetica Neue, Helvetica, Arial, sans-serif"> main.py</text></g><g class="node" aria-label="graph-node26" transform="translate(155.3666153353571,-7.568326890639301)" style="touch-action: none; -webkit-tap-highlight-color: rgba(0, 0, 0, 0);"><circle class="b-outline" cx="0" cy="0" r="25" fill="#DA7194" stroke="#cc3c6c" stroke-width="2px"/><text class="caption" text-anchor="middle" pointer-events="none" x="0" y="5" font-size="10px" fill="#FFFFFF" font-family="Helvetica Neue, Helvetica, Arial, sans-serif"> on_task_…</text></g><g class="node" aria-label="graph-node27" transform="translate(129.51498343825423,88.37416396917625)" style="touch-action: none; -webkit-tap-highlight-color: rgba(0, 0, 0, 0);"><circle class="b-outline" cx="0" cy="0" r="25" fill="#569480" stroke="#447666" stroke-width="2px"/><text class="caption" text-anchor="middle" pointer-events="none" x="0" y="5" font-size="10px" fill="#FFFFFF" font-family="Helvetica Neue, Helvetica, Arial, sans-serif"> alice</text></g><g class="node" aria-label="graph-node28" transform="translate(106.28668880667684,-93.81770662091566)" style="touch-action: none; -webkit-tap-highlight-color: rgba(0, 0, 0, 0);"><circle class="b-outline" cx="0" cy="0" r="25" fill="#569480" stroke="#447666" stroke-width="2px"/><text class="caption" text-anchor="middle" pointer-events="none" x="0" y="5" font-size="10px" fill="#FFFFFF" font-family="Helvetica Neue, Helvetica, Arial, sans-serif"> times3</text></g><g class="node" aria-label="graph-node29" transform="translate(11.404260162445365,-124.27341859146748)" style="touch-action: none; -webkit-tap-highlight-color: rgba(0, 0, 0, 0);"><circle class="b-outline" cx="0" cy="0" r="25" fill="#569480" stroke="#447666" stroke-width="2px"/><text class="caption" text-anchor="middle" pointer-events="none" x="0" y="5" font-size="10px" fill="#FFFFFF" font-family="Helvetica Neue, Helvetica, Arial, sans-serif"> bus</text></g><g class="node" aria-label="graph-node30" transform="translate(-223.98311771325507,-88.67393453392879)" style="touch-action: none; -webkit-tap-highlight-color: rgba(0, 0, 0, 0);"><circle class="b-outline" cx="0" cy="0" r="25" fill="#ECB5C9" stroke="#da7298" stroke-width="2px"/><text class="caption" text-anchor="middle" pointer-events="none" x="0" y="5" font-size="10px" fill="#2A2C34" font-family="Helvetica Neue, Helvetica, Arial, sans-serif"> models.…</text></g><g class="node" aria-label="graph-node31" transform="translate(-319.1412866408321,-265.7009434903474)" style="touch-action: none; -webkit-tap-highlight-color: rgba(0, 0, 0, 0);"><circle class="b-outline" cx="0" cy="0" r="25" fill="#4C8EDA" stroke="#2870c2" stroke-width="2px"/><text class="caption" text-anchor="middle" pointer-events="none" x="0" y="5" font-size="10px" fill="#FFFFFF" font-family="Helvetica Neue, Helvetica, Arial, sans-serif"> Person</text></g><g class="node" aria-label="graph-node32" transform="translate(-453.8377132754643,-210.31556536811536)" style="touch-action: none; -webkit-tap-highlight-color: rgba(0, 0, 0, 0);"><circle class="b-outline" cx="0" cy="0" r="25" fill="#ECB5C9" stroke="#da7298" stroke-width="2px"/><text class="caption" text-anchor="middle" pointer-events="none" x="0" y="5" font-size="10px" fill="#2A2C34" font-family="Helvetica Neue, Helvetica, Arial, sans-serif"> species</text></g><g class="node" aria-label="graph-node33" transform="translate(-264.70148641922924,-402.7957316805378)" style="touch-action: none; -webkit-tap-highlight-color: rgba(0, 0, 0, 0);"><circle class="b-outline" cx="0" cy="0" r="25" fill="#FFC454" stroke="#d7a013" stroke-width="2px"/><text class="caption" text-anchor="middle" pointer-events="none" x="0" y="5" font-size="10px" fill="#2A2C34" font-family="Helvetica Neue, Helvetica, Arial, sans-serif"> __init__</text></g><g class="node" aria-label="graph-node34" transform="translate(-404.0885119536113,-382.4042002236289)" style="touch-action: none; -webkit-tap-highlight-color: rgba(0, 0, 0, 0);"><circle class="b-outline" cx="0" cy="0" r="25" fill="#FFC454" stroke="#d7a013" stroke-width="2px"/><text class="caption" text-anchor="middle" pointer-events="none" x="0" y="5" font-size="10px" fill="#2A2C34" font-family="Helvetica Neue, Helvetica, Arial, sans-serif"> greet</text></g><g class="node" aria-label="graph-node35" transform="translate(-120.02833312897441,-216.18164846046872)" style="touch-action: none; -webkit-tap-highlight-color: rgba(0, 0, 0, 0);"><circle class="b-outline" cx="0" cy="0" r="25" fill="#4C8EDA" stroke="#2870c2" stroke-width="2px"/><text class="caption" text-anchor="middle" pointer-events="none" x="0" y="5" font-size="10px" fill="#FFFFFF" font-family="Helvetica Neue, Helvetica, Arial, sans-serif"> Employee</text></g><g class="node" aria-label="graph-node36" transform="translate(31.350953647767597,-248.9004129206707)" style="touch-action: none; -webkit-tap-highlight-color: rgba(0, 0, 0, 0);"><circle class="b-outline" cx="0" cy="0" r="25" fill="#FFC454" stroke="#d7a013" stroke-width="2px"/><text class="caption" text-anchor="middle" pointer-events="none" x="0" y="5" font-size="10px" fill="#2A2C34" font-family="Helvetica Neue, Helvetica, Arial, sans-serif"> __init__</text></g><g class="node" aria-label="graph-node37" transform="translate(-113.42644198214506,-365.2312792797028)" style="touch-action: none; -webkit-tap-highlight-color: rgba(0, 0, 0, 0);"><circle class="b-outline" cx="0" cy="0" r="25" fill="#FFC454" stroke="#d7a013" stroke-width="2px"/><text class="caption" text-anchor="middle" pointer-events="none" x="0" y="5" font-size="10px" fill="#2A2C34" font-family="Helvetica Neue, Helvetica, Arial, sans-serif"> work</text></g><g class="node" aria-label="graph-node38" transform="translate(-18.41354089805432,-335.1258842769295)" style="touch-action: none; -webkit-tap-highlight-color: rgba(0, 0, 0, 0);"><circle class="b-outline" cx="0" cy="0" r="25" fill="#FFC454" stroke="#d7a013" stroke-width="2px"/><text class="caption" text-anchor="middle" pointer-events="none" x="0" y="5" font-size="10px" fill="#2A2C34" font-family="Helvetica Neue, Helvetica, Arial, sans-serif"> __str__</text></g><g class="node" aria-label="graph-node39" transform="translate(-241.59758580011376,42.896449875635476)" style="touch-action: none; -webkit-tap-highlight-color: rgba(0, 0, 0, 0);"><circle class="b-outline" cx="0" cy="0" r="25" fill="#ECB5C9" stroke="#da7298" stroke-width="2px"/><text class="caption" text-anchor="middle" pointer-events="none" x="0" y="5" font-size="10px" fill="#2A2C34" font-family="Helvetica Neue, Helvetica, Arial, sans-serif"> utils.py</text></g><g class="node" aria-label="graph-node40" transform="translate(-420.41730618779326,-21.341355677764483)" style="touch-action: none; -webkit-tap-highlight-color: rgba(0, 0, 0, 0);"><circle class="b-outline" cx="0" cy="0" r="25" fill="#DA7194" stroke="#cc3c6c" stroke-width="2px"/><text class="caption" text-anchor="middle" pointer-events="none" x="0" y="5" font-size="10px" fill="#FFFFFF" font-family="Helvetica Neue, Helvetica, Arial, sans-serif"> log_exec…</text></g><g class="node" aria-label="graph-node41" transform="translate(-156.64601676297764,192.47403685116342)" style="touch-action: none; -webkit-tap-highlight-color: rgba(0, 0, 0, 0);"><circle class="b-outline" cx="0" cy="0" r="25" fill="#4C8EDA" stroke="#2870c2" stroke-width="2px"/><text class="caption" text-anchor="middle" pointer-events="none" x="0" y="5" font-size="10px" fill="#FFFFFF" font-family="Helvetica Neue, Helvetica, Arial, sans-serif"> MathOps</text></g><g class="node" aria-label="graph-node42" transform="translate(-283.5492012929765,283.02988316741016)" style="touch-action: none; -webkit-tap-highlight-color: rgba(0, 0, 0, 0);"><circle class="b-outline" cx="0" cy="0" r="25" fill="#ECB5C9" stroke="#da7298" stroke-width="2px"/><text class="caption" text-anchor="middle" pointer-events="none" x="0" y="5" font-size="10px" fill="#2A2C34" font-family="Helvetica Neue, Helvetica, Arial, sans-serif"> factor</text></g><g class="node" aria-label="graph-node43" transform="translate(-196.15087607606787,346.52524790260185)" style="touch-action: none; -webkit-tap-highlight-color: rgba(0, 0, 0, 0);"><circle class="b-outline" cx="0" cy="0" r="25" fill="#FFC454" stroke="#d7a013" stroke-width="2px"/><text class="caption" text-anchor="middle" pointer-events="none" x="0" y="5" font-size="10px" fill="#2A2C34" font-family="Helvetica Neue, Helvetica, Arial, sans-serif"> add</text></g><g class="node" aria-label="graph-node44" transform="translate(-94.57931513048537,338.12714971691764)" style="touch-action: none; -webkit-tap-highlight-color: rgba(0, 0, 0, 0);"><circle class="b-outline" cx="0" cy="0" r="25" fill="#FFC454" stroke="#d7a013" stroke-width="2px"/><text class="caption" text-anchor="middle" pointer-events="none" x="0" y="5" font-size="10px" fill="#2A2C34" font-family="Helvetica Neue, Helvetica, Arial, sans-serif"> scale</text></g><g class="node" aria-label="graph-node45" transform="translate(-140.81246451630778,111.54350305764609)" style="touch-action: none; -webkit-tap-highlight-color: rgba(0, 0, 0, 0);"><circle class="b-outline" cx="0" cy="0" r="25" fill="#DA7194" stroke="#cc3c6c" stroke-width="2px"/><text class="caption" text-anchor="middle" pointer-events="none" x="0" y="5" font-size="10px" fill="#FFFFFF" font-family="Helvetica Neue, Helvetica, Arial, sans-serif"> make_m…</text></g></g></svg>